<svg width="1024" height="1024" viewBox="0 0 1024 1024" fill="none" xmlns="http://www.w3.org/2000/svg">
<rect width="1024" height="1024" rx="100" fill="#ECD1D1"/>
<path d="M168.048 692.2C154.448 692.733 141.915 691 130.448 687C119.248 683.267 110.048 678.067 102.848 671.4C95.9151 664.733 91.5151 657 89.6484 648.2C87.7818 639.133 89.3818 629.933 94.4484 620.6C101.382 609.4 115.248 606.067 136.048 610.6C151.782 613.8 162.582 615.533 168.448 615.8C174.582 616.067 179.782 615.267 184.048 613.4C203.515 607 214.448 600.067 216.848 592.6C218.448 587 214.982 580.467 206.448 573C202.982 569.8 199.115 566.6 194.848 563.4C190.582 560.2 186.982 557 184.048 553.8C170.715 543.933 160.182 532.6 152.448 519.8C144.982 506.733 141.915 492.6 143.248 477.4C144.582 462.2 147.115 449.667 150.848 439.8C154.582 429.667 159.248 420.733 164.848 413C174.715 399.4 187.515 388.333 203.248 379.8C221.382 370.467 235.915 364.467 246.848 361.8C268.448 357 290.315 356.6 312.448 360.6C319.915 361.933 326.315 364.467 331.648 368.2C336.982 371.933 342.315 375.8 347.648 379.8C356.982 389.133 359.248 398.6 354.448 408.2C352.582 412.467 349.648 415.933 345.648 418.6C341.648 421.267 337.382 422.733 332.848 423C333.382 430.2 332.048 435.533 328.848 439C322.715 445.133 312.048 449.133 296.848 451C274.982 449.4 260.182 450.6 252.448 454.6C243.382 459.4 240.048 469.8 242.448 485.8C242.982 489.267 245.115 492.867 248.848 496.6C252.848 500.333 257.382 504.333 262.448 508.6C267.782 512.867 273.248 517.667 278.848 523C284.715 528.333 289.782 534.467 294.048 541.4C308.982 565.933 307.782 594.6 290.448 627.4C277.648 651.933 255.782 670.333 224.848 682.6C208.848 689 189.915 692.2 168.048 692.2ZM412.752 618.6C428.218 620.2 439.685 621 447.152 621C454.885 621 466.485 619.933 481.952 617.8C486.752 619.4 489.552 621.4 490.352 623.8C491.152 626.2 491.418 628.733 491.152 631.4C490.885 633.8 491.018 636.2 491.552 638.6C492.085 641 494.618 643 499.152 644.6C501.552 645.4 502.218 647.8 501.152 651.8C500.352 655.533 498.218 659.667 494.752 664.2C485.952 675.667 475.552 683.667 463.552 688.2C444.352 693 429.285 695.8 418.352 696.6C400.218 697.933 380.485 697.267 359.152 694.6C335.685 690.333 324.352 680.6 325.152 665.4C325.152 609.4 337.418 553.133 361.952 496.6C369.952 478.2 379.018 458.867 389.152 438.6C391.285 434.333 392.485 429.533 392.752 424.2C393.285 418.867 393.685 413.667 393.952 408.6C394.218 403.533 395.018 399 396.352 395C397.685 391 400.485 388.2 404.752 386.6C460.218 364.467 504.085 355.933 536.352 361C547.552 361.267 554.885 365.133 558.352 372.6C562.085 379.8 562.485 387.933 559.552 397C556.885 406.067 551.418 414.6 543.152 422.6C535.152 430.6 525.018 435.533 512.752 437.4C497.018 441.933 487.418 445 483.952 446.6C477.285 449.8 472.485 454.067 469.552 459.4C465.818 465.267 462.352 470.867 459.152 476.2C455.952 481.533 453.685 487.267 452.352 493.4L450.752 502.2C455.818 504.6 461.952 505.4 469.152 504.6C476.618 503.533 483.418 502.6 489.552 501.8C495.952 500.733 501.018 500.6 504.752 501.4C508.752 502.2 509.552 506.2 507.152 513.4C505.018 520.333 500.885 528.2 494.752 537C488.885 545.8 480.485 552.2 469.552 556.2C462.618 557.533 457.818 558.6 455.152 559.4C452.752 559.933 450.885 560.333 449.552 560.6C447.685 560.867 442.352 561.267 433.552 561.8C421.018 583.133 413.418 599.667 410.752 611.4C409.685 616.2 410.352 618.6 412.752 618.6ZM591.317 665.4C587.851 677.933 579.051 686.333 564.917 690.6C552.117 694.333 540.651 693 530.517 686.6C519.584 679.933 516.117 670.067 520.117 657C523.584 642.067 530.251 618.2 540.117 585.4C549.984 552.6 556.917 529.533 560.917 516.2C570.251 483.133 576.117 461.267 578.517 450.6C586.784 423.933 592.651 407.4 596.117 401C599.851 394.6 603.051 390.2 605.717 387.8C608.384 385.133 612.651 382.067 618.517 378.6C624.651 375.133 631.184 372.467 638.117 370.6C645.051 368.733 651.984 367.533 658.917 367C665.851 366.2 672.917 365.667 680.117 365.4C687.317 364.867 695.317 363.533 704.117 361.4C707.584 361.4 710.651 361.133 713.317 360.6C716.251 360.067 719.051 359.667 721.717 359.4C727.851 358.867 733.851 359.533 739.717 361.4C745.851 363.267 750.384 366.6 753.317 371.4C756.517 376.2 758.117 381.667 758.117 387.8C758.117 393.933 756.784 400.467 754.117 407.4C751.717 414.333 748.251 421 743.717 427.4C733.851 441.267 721.451 451.133 706.517 457C696.117 460.2 688.651 461.8 684.117 461.8C679.584 461.8 676.384 461.267 674.517 460.2C672.917 459.133 671.984 458.333 671.717 457.8C671.451 457.267 670.517 458.2 668.917 460.6C666.517 464.067 664.784 467.933 663.717 472.2C662.651 476.467 661.451 479.667 660.117 481.8C658.784 483.667 656.917 487.533 654.517 493.4C652.384 499.267 649.584 504.2 646.117 508.2C642.651 511.933 640.651 514.2 640.117 515L675.317 511.4C680.917 510.867 685.717 512.067 689.717 515C693.984 517.667 696.917 521 698.517 525C700.384 529 700.917 533 700.117 537C699.317 540.733 696.917 543.667 692.917 545.8C688.917 547.667 686.251 549.667 684.917 551.8C683.851 553.667 682.917 555.533 682.117 557.4C681.317 559.267 680.251 561.133 678.917 563C677.851 564.867 675.317 566.6 671.317 568.2C662.784 572.2 646.384 575.4 622.117 577.8C620.784 581.8 618.917 586.6 616.517 592.2C614.384 597.533 612.117 603.133 609.717 609C602.784 626.867 598.784 637.667 597.717 641.4C596.917 645.133 596.251 648.2 595.717 650.6C594.117 657.8 592.651 662.733 591.317 665.4ZM768.048 692.2C754.448 692.733 741.915 691 730.448 687C719.248 683.267 710.048 678.067 702.848 671.4C695.915 664.733 691.515 657 689.648 648.2C687.782 639.133 689.382 629.933 694.448 620.6C701.382 609.4 715.248 606.067 736.048 610.6C751.782 613.8 762.582 615.533 768.448 615.8C774.582 616.067 779.782 615.267 784.048 613.4C803.515 607 814.448 600.067 816.848 592.6C818.448 587 814.982 580.467 806.448 573C802.982 569.8 799.115 566.6 794.848 563.4C790.582 560.2 786.982 557 784.048 553.8C770.715 543.933 760.182 532.6 752.448 519.8C744.982 506.733 741.915 492.6 743.248 477.4C744.582 462.2 747.115 449.667 750.848 439.8C754.582 429.667 759.248 420.733 764.848 413C774.715 399.4 787.515 388.333 803.248 379.8C821.382 370.467 835.915 364.467 846.848 361.8C868.448 357 890.315 356.6 912.448 360.6C919.915 361.933 926.315 364.467 931.648 368.2C936.982 371.933 942.315 375.8 947.648 379.8C956.982 389.133 959.248 398.6 954.448 408.2C952.582 412.467 949.648 415.933 945.648 418.6C941.648 421.267 937.382 422.733 932.848 423C933.382 430.2 932.048 435.533 928.848 439C922.715 445.133 912.048 449.133 896.848 451C874.982 449.4 860.182 450.6 852.448 454.6C843.382 459.4 840.048 469.8 842.448 485.8C842.982 489.267 845.115 492.867 848.848 496.6C852.848 500.333 857.382 504.333 862.448 508.6C867.782 512.867 873.248 517.667 878.848 523C884.715 528.333 889.782 534.467 894.048 541.4C908.982 565.933 907.782 594.6 890.448 627.4C877.648 651.933 855.782 670.333 824.848 682.6C808.848 689 789.915 692.2 768.048 692.2Z" fill="#4F3A2E"/>
</svg>
